# Blender v2.83.2 OBJ File: ''
# www.blender.org
mtllib qqq.mtl
o Untitled_v1
v -0.019422 5.552987 -3.250465
v 0.067615 5.552987 -3.250465
v -0.019422 5.538158 -3.363101
v 0.067615 5.538158 -3.363101
v -0.019422 5.494683 -3.468060
v 0.067615 5.494683 -3.468060
v -0.019422 5.425523 -3.558190
v 0.067615 5.425523 -3.558190
v -0.019422 5.335393 -3.627349
v 0.067615 5.335393 -3.627349
v -0.019422 5.230434 -3.670825
v 0.067615 5.230434 -3.670825
v -0.019422 5.117799 -3.685653
v 0.067615 5.117799 -3.685653
v -0.019422 5.552987 3.168556
v 0.067616 5.552987 3.168556
v -0.019424 -4.782726 -3.685653
v -0.019424 -5.217914 -3.250465
v -0.019424 -5.203085 -3.363101
v -0.019424 -5.159610 -3.468060
v -0.019424 -5.090450 -3.558190
v -0.019424 -5.000319 -3.627349
v -0.019424 -4.895361 -3.670825
v -0.019424 -5.217914 3.168556
v -0.019424 -4.782726 3.603744
v -0.019422 5.117799 3.603744
v -0.019424 -5.203085 3.281191
v -0.019424 -5.159610 3.386150
v -0.019424 -5.090450 3.476280
v -0.019424 -5.000319 3.545440
v -0.019424 -4.895361 3.588915
v -0.019422 5.230434 3.588915
v -0.019422 5.335393 3.545440
v -0.019422 5.425523 3.476280
v -0.019422 5.494683 3.386150
v -0.019422 5.538158 3.281191
v 0.067616 5.117799 3.603744
v 0.067616 5.230434 3.588915
v 0.067616 5.335393 3.545440
v 0.067616 5.425523 3.476280
v 0.067616 5.494683 3.386150
v 0.067616 5.538158 3.281191
v 0.067614 -4.782726 3.603744
v 0.067614 -5.217914 3.168556
v 0.067614 -5.203085 3.281191
v 0.067614 -5.159610 3.386150
v 0.067614 -5.090450 3.476280
v 0.067614 -5.000319 3.545440
v 0.067614 -4.895361 3.588915
v 0.067614 -5.217914 -3.250465
v 0.067614 -4.782726 -3.685653
v 0.067614 -4.895361 -3.670825
v 0.067614 -5.000319 -3.627349
v 0.067614 -5.090450 -3.558190
v 0.067614 -5.159610 -3.468060
v 0.067614 -5.203085 -3.363101
vt -0.000000 0.314159
vt -0.080000 0.314159
vt -0.000000 0.209440
vt -0.080000 0.209440
vt -0.000000 0.104720
vt -0.080000 0.104720
vt -0.000000 0.000000
vt -0.080000 0.000000
vt -0.000000 -0.104720
vt -0.080000 -0.104720
vt -0.000000 -0.209440
vt -0.080000 -0.209440
vt -0.000000 -0.314159
vt -0.080000 -0.314159
vt 0.400000 0.000000
vt 6.300000 0.000000
vt 0.400000 0.080000
vt 6.300000 0.080000
vt -3.053528 4.936370
vt -3.350000 4.550000
vt -2.950000 4.950000
vt -3.350000 -4.550000
vt -2.950000 -4.950000
vt -3.053528 -4.936370
vt -3.150000 -4.896410
vt -3.232843 -4.832843
vt -3.296410 -4.750000
vt -3.336370 -4.653528
vt -3.150000 4.896410
vt -3.232843 4.832843
vt -3.296410 4.750000
vt -3.336370 4.653528
vt 2.950000 -4.950000
vt 2.950000 4.950000
vt 3.350000 -4.550000
vt 3.350000 4.550000
vt 3.053528 -4.936370
vt 3.150000 -4.896410
vt 3.232843 -4.832843
vt 3.296410 -4.750000
vt 3.336370 -4.653528
vt 3.336370 4.653528
vt 3.296410 4.750000
vt 3.232843 4.832843
vt 3.150000 4.896410
vt 3.053528 4.936370
vt -0.000000 0.314159
vt -0.080000 0.314159
vt -0.000000 0.209440
vt -0.080000 0.209440
vt -0.000000 0.104720
vt -0.080000 0.104720
vt -0.000000 0.000000
vt -0.080000 0.000000
vt -0.000000 -0.104720
vt -0.080000 -0.104720
vt -0.000000 -0.209440
vt -0.080000 -0.209440
vt -0.000000 -0.314159
vt -0.080000 -0.314159
vt 0.400000 0.000000
vt 9.500000 0.000000
vt 0.400000 0.080000
vt 9.500000 0.080000
vt -0.000000 0.314159
vt -0.080000 0.314159
vt -0.000000 0.209440
vt -0.080000 0.209440
vt -0.000000 0.104720
vt -0.080000 0.104720
vt -0.000000 0.000000
vt -0.080000 0.000000
vt -0.000000 -0.104720
vt -0.080000 -0.104720
vt -0.000000 -0.209440
vt -0.080000 -0.209440
vt -0.000000 -0.314159
vt -0.080000 -0.314159
vt 0.400000 0.000000
vt 6.300000 0.000000
vt 0.400000 0.080000
vt 6.300000 0.080000
vt -0.000000 0.314159
vt -0.080000 0.314159
vt -0.000000 0.209440
vt -0.080000 0.209440
vt -0.000000 0.104720
vt -0.080000 0.104720
vt -0.000000 0.000000
vt -0.080000 0.000000
vt -0.000000 -0.104720
vt -0.080000 -0.104720
vt -0.000000 -0.209440
vt -0.080000 -0.209440
vt -0.000000 -0.314159
vt -0.080000 -0.314159
vt 9.500000 0.080000
vt 0.400000 0.080000
vt 9.500000 0.000000
vt 0.400000 0.000000
vt 3.336370 4.653528
vt 3.296410 4.750000
vt 3.350000 4.550000
vt 3.232843 4.832843
vt 3.150000 4.896410
vt 3.053528 4.936370
vt 2.950000 4.950000
vt 3.350000 -4.550000
vt 2.950000 -4.950000
vt 3.053528 -4.936370
vt -2.950000 4.950000
vt -2.950000 -4.950000
vt -3.350000 -4.550000
vt -3.053528 -4.936370
vt -3.150000 -4.896410
vt -3.232843 -4.832843
vt -3.296410 -4.750000
vt -3.336370 -4.653528
vt -3.350000 4.550000
vt -3.053528 4.936370
vt -3.150000 4.896410
vt -3.232843 4.832843
vt -3.296410 4.750000
vt -3.336370 4.653528
vt 3.150000 -4.896410
vt 3.232843 -4.832843
vt 3.296410 -4.750000
vt 3.336370 -4.653528
vn 0.0000 1.0000 -0.0000
vn 0.0000 0.9659 -0.2588
vn 0.0000 0.8660 -0.5000
vn 0.0000 0.7071 -0.7071
vn 0.0000 0.5000 -0.8660
vn 0.0000 0.2588 -0.9659
vn 0.0000 0.0000 -1.0000
vn -1.0000 0.0000 0.0000
vn -0.0000 0.0000 1.0000
vn 0.0000 0.2588 0.9659
vn 0.0000 0.5000 0.8660
vn 0.0000 0.7071 0.7071
vn 0.0000 0.8660 0.5000
vn 0.0000 0.9659 0.2588
vn -0.0000 -1.0000 0.0000
vn 0.0000 -0.9659 0.2588
vn 0.0000 -0.8660 0.5000
vn 0.0000 -0.7071 0.7071
vn 0.0000 -0.5000 0.8660
vn 0.0000 -0.2588 0.9659
vn 0.0000 -0.2588 -0.9659
vn 0.0000 -0.5000 -0.8660
vn 0.0000 -0.7071 -0.7071
vn 0.0000 -0.8660 -0.5000
vn 0.0000 -0.9659 -0.2588
vn 1.0000 -0.0000 -0.0000
usemtl Steel_-_Satin
s 1
f 1/1/1 2/2/1 3/3/2
f 3/3/2 2/2/1 4/4/2
f 3/3/2 4/4/2 5/5/3
f 5/5/3 4/4/2 6/6/3
f 5/5/3 6/6/3 7/7/4
f 7/7/4 6/6/3 8/8/4
f 7/7/4 8/8/4 9/9/5
f 9/9/5 8/8/4 10/10/5
f 9/9/5 10/10/5 11/11/6
f 11/11/6 10/10/5 12/12/6
f 11/11/6 12/12/6 13/13/7
f 13/13/7 12/12/6 14/14/7
f 1/15/1 15/16/1 2/17/1
f 2/17/1 15/16/1 16/18/1
f 3/19/8 13/20/8 1/21/8
f 1/21/8 13/20/8 17/22/8
f 1/21/8 17/22/8 18/23/8
f 18/23/8 17/22/8 19/24/8
f 19/24/8 17/22/8 20/25/8
f 20/25/8 17/22/8 21/26/8
f 21/26/8 17/22/8 22/27/8
f 22/27/8 17/22/8 23/28/8
f 3/19/8 5/29/8 13/20/8
f 13/20/8 5/29/8 7/30/8
f 13/20/8 7/30/8 9/31/8
f 9/31/8 11/32/8 13/20/8
f 18/23/8 24/33/8 1/21/8
f 1/21/8 24/33/8 15/34/8
f 15/34/8 24/33/8 25/35/8
f 15/34/8 25/35/8 26/36/8
f 24/33/8 27/37/8 25/35/8
f 25/35/8 27/37/8 28/38/8
f 25/35/8 28/38/8 29/39/8
f 29/39/8 30/40/8 25/35/8
f 25/35/8 30/40/8 31/41/8
f 32/42/8 33/43/8 26/36/8
f 26/36/8 33/43/8 34/44/8
f 26/36/8 34/44/8 35/45/8
f 35/45/8 36/46/8 26/36/8
f 26/36/8 36/46/8 15/34/8
f 26/47/9 37/48/9 32/49/10
f 32/49/10 37/48/9 38/50/10
f 32/49/10 38/50/10 33/51/11
f 33/51/11 38/50/10 39/52/11
f 33/51/11 39/52/11 34/53/12
f 34/53/12 39/52/11 40/54/12
f 34/53/12 40/54/12 35/55/13
f 35/55/13 40/54/12 41/56/13
f 35/55/13 41/56/13 36/57/14
f 36/57/14 41/56/13 42/58/14
f 36/57/14 42/58/14 15/59/1
f 15/59/1 42/58/14 16/60/1
f 26/61/9 25/62/9 37/63/9
f 37/63/9 25/62/9 43/64/9
f 24/65/15 44/66/15 27/67/16
f 27/67/16 44/66/15 45/68/16
f 27/67/16 45/68/16 28/69/17
f 28/69/17 45/68/16 46/70/17
f 28/69/17 46/70/17 29/71/18
f 29/71/18 46/70/17 47/72/18
f 29/71/18 47/72/18 30/73/19
f 30/73/19 47/72/18 48/74/19
f 30/73/19 48/74/19 31/75/20
f 31/75/20 48/74/19 49/76/20
f 31/75/20 49/76/20 25/77/9
f 25/77/9 49/76/20 43/78/9
f 24/79/15 18/80/15 44/81/15
f 44/81/15 18/80/15 50/82/15
f 17/83/7 51/84/7 23/85/21
f 23/85/21 51/84/7 52/86/21
f 23/85/21 52/86/21 22/87/22
f 22/87/22 52/86/21 53/88/22
f 22/87/22 53/88/22 21/89/23
f 21/89/23 53/88/22 54/90/23
f 21/89/23 54/90/23 20/91/24
f 20/91/24 54/90/23 55/92/24
f 20/91/24 55/92/24 19/93/25
f 19/93/25 55/92/24 56/94/25
f 19/93/25 56/94/25 18/95/15
f 18/95/15 56/94/25 50/96/15
f 14/97/7 51/98/7 13/99/7
f 13/99/7 51/98/7 17/100/7
f 12/101/26 10/102/26 14/103/26
f 14/103/26 10/102/26 8/104/26
f 14/103/26 8/104/26 6/105/26
f 6/105/26 4/106/26 14/103/26
f 14/103/26 4/106/26 2/107/26
f 14/103/26 2/107/26 51/108/26
f 51/108/26 2/107/26 50/109/26
f 51/108/26 50/109/26 56/110/26
f 2/107/26 16/111/26 50/109/26
f 50/109/26 16/111/26 44/112/26
f 44/112/26 16/111/26 43/113/26
f 44/112/26 43/113/26 45/114/26
f 45/114/26 43/113/26 46/115/26
f 46/115/26 43/113/26 47/116/26
f 47/116/26 43/113/26 48/117/26
f 48/117/26 43/113/26 49/118/26
f 43/113/26 16/111/26 37/119/26
f 37/119/26 16/111/26 42/120/26
f 37/119/26 42/120/26 41/121/26
f 41/121/26 40/122/26 37/119/26
f 37/119/26 40/122/26 39/123/26
f 37/119/26 39/123/26 38/124/26
f 56/110/26 55/125/26 51/108/26
f 51/108/26 55/125/26 54/126/26
f 51/108/26 54/126/26 53/127/26
f 53/127/26 52/128/26 51/108/26
