# WaveFront *.obj file (generated by Autodesk ATF)

mtllib 5233865d-eaa1-45d8-8f1a-c210b6250903.mtl

g Body1

v 22.000000 25.000000 1.000000
v 22.776457 24.897777 1.000000
v 23.500000 24.598076 1.000000
v 24.121320 24.121320 1.000000
v 24.598076 23.500000 1.000000
v 24.897777 22.776457 1.000000
v 25.000000 22.000000 1.000000
v 25.000000 22.000000 0.000000
v 24.897777 22.776457 0.000000
v 24.598076 23.500000 0.000000
v 24.121320 24.121320 0.000000
v 23.500000 24.598076 0.000000
v 22.776457 24.897777 0.000000
v 22.000000 25.000000 0.000000
v -22.000000 25.000000 0.000000
v -22.000000 25.000000 1.000000
v 25.000000 -22.000000 0.000000
v 24.897777 -22.776457 0.000000
v 24.598076 -23.500000 0.000000
v 24.121320 -24.121320 0.000000
v 23.500000 -24.598076 0.000000
v 22.776457 -24.897777 0.000000
v 22.000000 -25.000000 0.000000
v -22.000000 -25.000000 0.000000
v -22.776457 -24.897777 0.000000
v -23.500000 -24.598076 0.000000
v -24.121320 -24.121320 0.000000
v -24.598076 -23.500000 0.000000
v -24.897777 -22.776457 0.000000
v -25.000000 -22.000000 0.000000
v -25.000000 22.000000 0.000000
v -24.897777 22.776457 0.000000
v -24.598076 23.500000 0.000000
v -24.121320 24.121320 0.000000
v -23.500000 24.598076 0.000000
v -22.776457 24.897777 0.000000
v -25.000000 22.000000 1.000000
v -24.897777 22.776457 1.000000
v -24.598076 23.500000 1.000000
v -24.121320 24.121320 1.000000
v -23.500000 24.598076 1.000000
v -22.776457 24.897777 1.000000
v -25.000000 -22.000000 1.000000
v -22.000000 -25.000000 1.000000
v -22.776457 -24.897777 1.000000
v -23.500000 -24.598076 1.000000
v -24.121320 -24.121320 1.000000
v -24.598076 -23.500000 1.000000
v -24.897777 -22.776457 1.000000
v 22.000000 -25.000000 1.000000
v 25.000000 -22.000000 1.000000
v 24.897777 -22.776457 1.000000
v 24.598076 -23.500000 1.000000
v 24.121320 -24.121320 1.000000
v 23.500000 -24.598076 1.000000
v 22.776457 -24.897777 1.000000
vt -0.000000 0.235619 0.000000
vt -0.100000 0.235619 0.000000
vt -0.000000 0.157080 0.000000
vt -0.100000 0.157080 0.000000
vt -0.000000 0.078540 0.000000
vt -0.100000 0.078540 0.000000
vt -0.000000 0.000000 0.000000
vt -0.100000 0.000000 0.000000
vt -0.000000 -0.078540 0.000000
vt -0.100000 -0.078540 0.000000
vt -0.000000 -0.157080 0.000000
vt -0.100000 -0.157080 0.000000
vt -0.000000 -0.235619 0.000000
vt -0.100000 -0.235619 0.000000
vt 0.300000 0.000000 0.000000
vt 4.700000 0.000000 0.000000
vt 0.300000 0.100000 0.000000
vt 4.700000 0.100000 0.000000
vt -2.277646 2.489778 0.000000
vt -2.350000 2.459808 0.000000
vt -2.200000 2.500000 0.000000
vt -2.412132 2.412132 0.000000
vt -2.459808 2.350000 0.000000
vt -2.489778 2.277646 0.000000
vt -2.500000 2.200000 0.000000
vt 2.500000 -2.200000 0.000000
vt 2.200000 -2.500000 0.000000
vt 2.277646 -2.489778 0.000000
vt -2.500000 -2.200000 0.000000
vt -2.200000 -2.500000 0.000000
vt -2.277646 -2.489778 0.000000
vt -2.350000 -2.459808 0.000000
vt -2.412132 -2.412132 0.000000
vt -2.459808 -2.350000 0.000000
vt -2.489778 -2.277646 0.000000
vt 2.350000 -2.459808 0.000000
vt 2.412132 -2.412132 0.000000
vt 2.459808 -2.350000 0.000000
vt 2.489778 -2.277646 0.000000
vt 2.500000 2.200000 0.000000
vt 2.200000 2.500000 0.000000
vt 2.489778 2.277646 0.000000
vt 2.459808 2.350000 0.000000
vt 2.412132 2.412132 0.000000
vt 2.350000 2.459808 0.000000
vt 2.277646 2.489778 0.000000
vt -0.000000 0.235619 0.000000
vt -0.100000 0.235619 0.000000
vt -0.000000 0.157080 0.000000
vt -0.100000 0.157080 0.000000
vt -0.000000 0.078540 0.000000
vt -0.100000 0.078540 0.000000
vt -0.000000 0.000000 0.000000
vt -0.100000 0.000000 0.000000
vt -0.000000 -0.078540 0.000000
vt -0.100000 -0.078540 0.000000
vt -0.000000 -0.157080 0.000000
vt -0.100000 -0.157080 0.000000
vt -0.000000 -0.235619 0.000000
vt -0.100000 -0.235619 0.000000
vt 0.300000 0.000000 0.000000
vt 4.700000 0.000000 0.000000
vt 0.300000 0.100000 0.000000
vt 4.700000 0.100000 0.000000
vt -0.000000 0.235619 0.000000
vt -0.100000 0.235619 0.000000
vt -0.000000 0.157080 0.000000
vt -0.100000 0.157080 0.000000
vt -0.000000 0.078540 0.000000
vt -0.100000 0.078540 0.000000
vt -0.000000 0.000000 0.000000
vt -0.100000 0.000000 0.000000
vt -0.000000 -0.078540 0.000000
vt -0.100000 -0.078540 0.000000
vt -0.000000 -0.157080 0.000000
vt -0.100000 -0.157080 0.000000
vt -0.000000 -0.235619 0.000000
vt -0.100000 -0.235619 0.000000
vt 0.300000 0.000000 0.000000
vt 4.700000 0.000000 0.000000
vt 0.300000 0.100000 0.000000
vt 4.700000 0.100000 0.000000
vt -0.000000 0.235619 0.000000
vt -0.100000 0.235619 0.000000
vt -0.000000 0.157080 0.000000
vt -0.100000 0.157080 0.000000
vt -0.000000 0.078540 0.000000
vt -0.100000 0.078540 0.000000
vt -0.000000 0.000000 0.000000
vt -0.100000 0.000000 0.000000
vt -0.000000 -0.078540 0.000000
vt -0.100000 -0.078540 0.000000
vt -0.000000 -0.157080 0.000000
vt -0.100000 -0.157080 0.000000
vt -0.000000 -0.235619 0.000000
vt -0.100000 -0.235619 0.000000
vt 4.700000 0.100000 0.000000
vt 0.300000 0.100000 0.000000
vt 4.700000 0.000000 0.000000
vt 0.300000 0.000000 0.000000
vt 2.489778 2.277646 0.000000
vt 2.200000 2.500000 0.000000
vt 2.500000 2.200000 0.000000
vt -2.200000 2.500000 0.000000
vt 2.500000 -2.200000 0.000000
vt -2.500000 2.200000 0.000000
vt 2.200000 -2.500000 0.000000
vt -2.500000 -2.200000 0.000000
vt -2.200000 -2.500000 0.000000
vt -2.277646 -2.489778 0.000000
vt -2.350000 -2.459808 0.000000
vt -2.412132 -2.412132 0.000000
vt -2.459808 -2.350000 0.000000
vt -2.489778 -2.277646 0.000000
vt 2.459808 2.350000 0.000000
vt 2.412132 2.412132 0.000000
vt 2.350000 2.459808 0.000000
vt 2.277646 2.489778 0.000000
vt -2.277646 2.489778 0.000000
vt -2.350000 2.459808 0.000000
vt -2.412132 2.412132 0.000000
vt -2.459808 2.350000 0.000000
vt -2.489778 2.277646 0.000000
vt 2.277646 -2.489778 0.000000
vt 2.350000 -2.459808 0.000000
vt 2.412132 -2.412132 0.000000
vt 2.459808 -2.350000 0.000000
vt 2.489778 -2.277646 0.000000
vn -0.000000 0.100000 -0.000000
vn -0.000000 0.100000 -0.000000
vn 0.025882 0.096593 0.000000
vn 0.025882 0.096593 0.000000
vn 0.050000 0.086603 0.000000
vn 0.050000 0.086603 0.000000
vn 0.070711 0.070711 0.000000
vn 0.070711 0.070711 0.000000
vn 0.086603 0.050000 0.000000
vn 0.086603 0.050000 0.000000
vn 0.096593 0.025882 0.000000
vn 0.096593 0.025882 0.000000
vn 0.100000 0.000000 0.000000
vn 0.100000 0.000000 0.000000
vn 0.000000 0.100000 0.000000
vn 0.000000 0.100000 0.000000
vn -0.000000 0.000000 -0.100000
vn -0.000000 0.000000 -0.100000
vn -0.000000 0.000000 -0.100000
vn -0.000000 0.000000 -0.100000
vn -0.000000 0.000000 -0.100000
vn -0.000000 0.000000 -0.100000
vn -0.000000 0.000000 -0.100000
vn -0.000000 0.000000 -0.100000
vn -0.000000 0.000000 -0.100000
vn -0.000000 0.000000 -0.100000
vn -0.000000 0.000000 -0.100000
vn -0.000000 0.000000 -0.100000
vn -0.000000 0.000000 -0.100000
vn -0.000000 0.000000 -0.100000
vn -0.000000 0.000000 -0.100000
vn -0.000000 0.000000 -0.100000
vn -0.000000 0.000000 -0.100000
vn -0.000000 0.000000 -0.100000
vn -0.000000 0.000000 -0.100000
vn -0.000000 0.000000 -0.100000
vn -0.000000 0.000000 -0.100000
vn -0.000000 0.000000 -0.100000
vn -0.000000 0.000000 -0.100000
vn -0.000000 0.000000 -0.100000
vn -0.000000 0.000000 -0.100000
vn -0.000000 0.000000 -0.100000
vn -0.000000 0.000000 -0.100000
vn -0.000000 0.000000 -0.100000
vn -0.100000 0.000000 0.000000
vn -0.100000 0.000000 0.000000
vn -0.096593 0.025882 -0.000000
vn -0.096593 0.025882 -0.000000
vn -0.086603 0.050000 -0.000000
vn -0.086603 0.050000 -0.000000
vn -0.070711 0.070711 -0.000000
vn -0.070711 0.070711 -0.000000
vn -0.050000 0.086603 -0.000000
vn -0.050000 0.086603 -0.000000
vn -0.025882 0.096593 -0.000000
vn -0.025882 0.096593 -0.000000
vn -0.100000 0.000000 0.000000
vn -0.100000 0.000000 0.000000
vn 0.000000 -0.100000 0.000000
vn 0.000000 -0.100000 0.000000
vn -0.025882 -0.096593 0.000000
vn -0.025882 -0.096593 0.000000
vn -0.050000 -0.086603 0.000000
vn -0.050000 -0.086603 0.000000
vn -0.070711 -0.070711 0.000000
vn -0.070711 -0.070711 0.000000
vn -0.086603 -0.050000 0.000000
vn -0.086603 -0.050000 0.000000
vn -0.096593 -0.025882 0.000000
vn -0.096593 -0.025882 0.000000
vn 0.000000 -0.100000 0.000000
vn 0.000000 -0.100000 0.000000
vn 0.100000 0.000000 0.000000
vn 0.100000 0.000000 0.000000
vn 0.096593 -0.025882 0.000000
vn 0.096593 -0.025882 0.000000
vn 0.086603 -0.050000 0.000000
vn 0.086603 -0.050000 0.000000
vn 0.070711 -0.070711 0.000000
vn 0.070711 -0.070711 0.000000
vn 0.050000 -0.086603 0.000000
vn 0.050000 -0.086603 0.000000
vn 0.025882 -0.096593 0.000000
vn 0.025882 -0.096593 0.000000
vn 0.000000 0.000000 0.100000
vn 0.000000 0.000000 0.100000
vn 0.000000 0.000000 0.100000
vn 0.000000 0.000000 0.100000
vn 0.000000 0.000000 0.100000
vn 0.000000 0.000000 0.100000
vn 0.000000 0.000000 0.100000
vn 0.000000 0.000000 0.100000
vn 0.000000 0.000000 0.100000
vn 0.000000 0.000000 0.100000
vn 0.000000 0.000000 0.100000
vn 0.000000 0.000000 0.100000
vn 0.000000 0.000000 0.100000
vn 0.000000 0.000000 0.100000
vn 0.000000 0.000000 0.100000
vn 0.000000 0.000000 0.100000
vn 0.000000 0.000000 0.100000
vn 0.000000 0.000000 0.100000
vn 0.000000 0.000000 0.100000
vn 0.000000 0.000000 0.100000
vn 0.000000 0.000000 0.100000
vn 0.000000 0.000000 0.100000
vn 0.000000 0.000000 0.100000
vn 0.000000 0.000000 0.100000
vn 0.000000 0.000000 0.100000
vn 0.000000 0.000000 0.100000
vn 0.000000 0.000000 0.100000
vn 0.000000 0.000000 0.100000
usemtl Plastic_-_Translucent_Matte_(White)
f 14/1/1 1/2/2 13/3/3
f 13/3/3 1/2/2 2/4/4
f 13/3/3 2/4/4 12/5/5
f 12/5/5 2/4/4 3/6/6
f 12/5/5 3/6/6 11/7/7
f 11/7/7 3/6/6 4/8/8
f 11/7/7 4/8/8 10/9/9
f 10/9/9 4/8/8 5/10/10
f 10/9/9 5/10/10 9/11/11
f 9/11/11 5/10/10 6/12/12
f 9/11/11 6/12/12 8/13/13
f 8/13/13 6/12/12 7/14/14
f 14/15/1 15/16/15 1/17/2
f 1/17/2 15/16/15 16/18/16
f 13/19/17 12/20/18 14/21/19
f 14/21/19 12/20/18 11/22/20
f 14/21/19 11/22/20 10/23/21
f 10/23/21 9/24/22 14/21/19
f 14/21/19 9/24/22 8/25/23
f 14/21/19 8/25/23 30/26/24
f 30/26/24 8/25/23 24/27/25
f 30/26/24 24/27/25 25/28/26
f 8/25/23 17/29/27 24/27/25
f 24/27/25 17/29/27 23/30/28
f 23/30/28 17/29/27 22/31/29
f 22/31/29 17/29/27 21/32/30
f 21/32/30 17/29/27 20/33/31
f 20/33/31 17/29/27 19/34/32
f 19/34/32 17/29/27 18/35/33
f 25/28/26 26/36/34 30/26/24
f 30/26/24 26/36/34 27/37/35
f 30/26/24 27/37/35 28/38/36
f 28/38/36 29/39/37 30/26/24
f 30/26/24 31/40/38 14/21/19
f 14/21/19 31/40/38 15/41/39
f 15/41/39 31/40/38 32/42/40
f 15/41/39 32/42/40 33/43/41
f 33/43/41 34/44/42 15/41/39
f 15/41/39 34/44/42 35/45/43
f 15/41/39 35/45/43 36/46/44
f 31/47/45 37/48/46 32/49/47
f 32/49/47 37/48/46 38/50/48
f 32/49/47 38/50/48 33/51/49
f 33/51/49 38/50/48 39/52/50
f 33/51/49 39/52/50 34/53/51
f 34/53/51 39/52/50 40/54/52
f 34/53/51 40/54/52 35/55/53
f 35/55/53 40/54/52 41/56/54
f 35/55/53 41/56/54 36/57/55
f 36/57/55 41/56/54 42/58/56
f 36/57/55 42/58/56 15/59/15
f 15/59/15 42/58/56 16/60/16
f 31/61/45 30/62/57 37/63/46
f 37/63/46 30/62/57 43/64/58
f 24/65/59 44/66/60 25/67/61
f 25/67/61 44/66/60 45/68/62
f 25/67/61 45/68/62 26/69/63
f 26/69/63 45/68/62 46/70/64
f 26/69/63 46/70/64 27/71/65
f 27/71/65 46/70/64 47/72/66
f 27/71/65 47/72/66 28/73/67
f 28/73/67 47/72/66 48/74/68
f 28/73/67 48/74/68 29/75/69
f 29/75/69 48/74/68 49/76/70
f 29/75/69 49/76/70 30/77/57
f 30/77/57 49/76/70 43/78/58
f 24/79/59 23/80/71 44/81/60
f 44/81/60 23/80/71 50/82/72
f 17/83/73 51/84/74 18/85/75
f 18/85/75 51/84/74 52/86/76
f 18/85/75 52/86/76 19/87/77
f 19/87/77 52/86/76 53/88/78
f 19/87/77 53/88/78 20/89/79
f 20/89/79 53/88/78 54/90/80
f 20/89/79 54/90/80 21/91/81
f 21/91/81 54/90/80 55/92/82
f 21/91/81 55/92/82 22/93/83
f 22/93/83 55/92/82 56/94/84
f 22/93/83 56/94/84 23/95/71
f 23/95/71 56/94/84 50/96/72
f 7/97/14 51/98/74 8/99/13
f 8/99/13 51/98/74 17/100/73
f 6/101/85 1/102/86 7/103/87
f 7/103/87 1/102/86 16/104/88
f 7/103/87 16/104/88 51/105/89
f 51/105/89 16/104/88 37/106/90
f 51/105/89 37/106/90 50/107/91
f 50/107/91 37/106/90 43/108/92
f 50/107/91 43/108/92 44/109/93
f 44/109/93 43/108/92 45/110/94
f 45/110/94 43/108/92 46/111/95
f 46/111/95 43/108/92 47/112/96
f 47/112/96 43/108/92 48/113/97
f 48/113/97 43/108/92 49/114/98
f 6/101/85 5/115/99 1/102/86
f 1/102/86 5/115/99 4/116/100
f 1/102/86 4/116/100 3/117/101
f 3/117/101 2/118/102 1/102/86
f 42/119/103 41/120/104 16/104/88
f 16/104/88 41/120/104 40/121/105
f 16/104/88 40/121/105 39/122/106
f 39/122/106 38/123/107 16/104/88
f 16/104/88 38/123/107 37/106/90
f 50/107/91 56/124/108 51/105/89
f 51/105/89 56/124/108 55/125/109
f 51/105/89 55/125/109 54/126/110
f 54/126/110 53/127/111 51/105/89
f 51/105/89 53/127/111 52/128/112

# 56 vertices
# 128 texture params
# 112 normals
# 108 facets

# 1 groups
